<svg width="1485" height="1485" viewBox="0 0 1485 1485" fill="none" xmlns="http://www.w3.org/2000/svg">
<g filter="url(#filter0_d_204_9)">
<path fill-rule="evenodd" clip-rule="evenodd" d="M1025.3 459.62C1083.88 401.041 1178.86 401.041 1237.44 459.62L1378.86 601.041C1437.44 659.62 1437.44 754.594 1378.86 813.173L1308.15 883.884L954.593 530.33L1025.3 459.62ZM459.619 318.198C518.197 259.619 613.172 259.619 671.751 318.198L1272.79 919.239L1025.3 1166.73C966.725 1225.3 871.751 1225.3 813.172 1166.73L212.131 565.685L459.619 318.198ZM530.33 954.594L176.776 601.041L106.066 671.751C47.4871 730.33 47.4871 825.305 106.066 883.883L247.487 1025.3C306.066 1083.88 401.04 1083.88 459.619 1025.3L530.33 954.594Z" fill="white"/>
</g>
<defs>
<filter id="filter0_d_204_9" x="58.1309" y="274.264" width="1368.66" height="960.396" filterUnits="userSpaceOnUse" color-interpolation-filters="sRGB">
<feFlood flood-opacity="0" result="BackgroundImageFix"/>
<feColorMatrix in="SourceAlpha" type="matrix" values="0 0 0 0 0 0 0 0 0 0 0 0 0 0 0 0 0 0 127 0" result="hardAlpha"/>
<feOffset dy="20"/>
<feGaussianBlur stdDeviation="2"/>
<feComposite in2="hardAlpha" operator="out"/>
<feColorMatrix type="matrix" values="0 0 0 0 0 0 0 0 0 0 0 0 0 0 0 0 0 0 0.1 0"/>
<feBlend mode="normal" in2="BackgroundImageFix" result="effect1_dropShadow_204_9"/>
<feBlend mode="normal" in="SourceGraphic" in2="effect1_dropShadow_204_9" result="shape"/>
</filter>
</defs>
</svg>
